<svg xmlns="http://www.w3.org/2000/svg" width="87.831" height="81.108" viewBox="0 0 87.831 81.108">
    <g transform="translate(-28.09 -40.823)" style="isolation:isolate">
        <g transform="translate(28.09 40.823)">
            <path
                d="M135.655,155.329v-1.038l.3-1.151h-5.2l-2.846-.988v-.39l.3-.151V150.9l-.3-.128v-.692l.195-.131v-.669h-.195v-.715h-.238s-.195-1.058-1.014-1.078c0,0-.044-.3-.195-.3s-.195.3-.195.3c-.82.02-1.014,1.078-1.014,1.078h-.238v.715h-.195v.669l.195.131v.692l-.3.128v.712l.3.151v.39l-2.843.988h-5.16l.262,1.151v1.038h-4.456v1.514h-1.59v-9.482h-.953v-1.695h-4.267V147.2h-2.6v.887h-1.154v4.459h-1.326a.612.612,0,0,0-.1-.593c-.142-.189-.392-.145-.61-.032a.64.64,0,0,0-.218-.663c-.25-.189-.5-.015-.68.247a1.859,1.859,0,0,0-.134-.247c-.195-.3-.392-.262-.57-.1a1.351,1.351,0,0,0-.134-.349c-.305-.567-.654-.4-.892-.058a.161.161,0,0,0-.017-.023v-1.11H94.983c-.023-.477-.029-.942-.038-1.436,0-.154-.012-.308-.02-.462a4.32,4.32,0,0,0,.189.709c.029.081.07,0,.084-.093a9.375,9.375,0,0,0,.046-1.026.037.037,0,0,0,0,.017,5.558,5.558,0,0,0,.416,1.166c.032.067.078-.081.076-.18a1.64,1.64,0,0,0-.041-.331,3.117,3.117,0,0,1-.073-.389c.128.279.311.767.477.695.035-.015.061-.108.058-.212-.012-.509-.145-1.049-.2-1.532a.355.355,0,0,0-.006-.055,3.237,3.237,0,0,0,.462.529,1.156,1.156,0,0,0,.546.273,2.22,2.22,0,0,1,.384.055c.067-.02.137-.041.2-.067-.137-.233-.279-.445-.419-.651a1.2,1.2,0,0,0,.3-.049,1.28,1.28,0,0,0,.334-.195c.038-.026.11-.125.154-.084a.925.925,0,0,0,.055-.108.115.115,0,0,0-.012-.058.127.127,0,0,0-.032-.035,5.23,5.23,0,0,1-.471-.541.655.655,0,0,0,.3-.084c.006-.015.009-.029.017-.035a.98.98,0,0,0,.448-.453.452.452,0,0,0-.055-.023c-.282-.02-.549-.355-.814-.613a1.508,1.508,0,0,1-.137-.16.861.861,0,0,0,.224-.09h0l.009-.006c.058-.035.119-.073.177-.113s.195-.235.3-.323l.009,0c.047-.073.09-.145.137-.212a1.028,1.028,0,0,1-.18-.046,1.352,1.352,0,0,1-.642-.381,5.61,5.61,0,0,1-.529-.57c-.023-.026-.058-.064-.1-.11l-.006-.009a1.307,1.307,0,0,0,.27.108.89.89,0,0,0,.419-.029c.113-.026.235-.163.352-.224a.186.186,0,0,0,.14-.032.226.226,0,0,0,.032-.119.539.539,0,0,1-.142-.078h0c-.209,0-.471-.355-.631-.593-.067-.1-.134-.192-.2-.285a.933.933,0,0,0,.465,0,2.358,2.358,0,0,1-.23-.462.937.937,0,0,1-.215-.224c-.07-.1-.134-.215-.2-.331a1.077,1.077,0,0,0,.619-.189c.012-.006.02-.026.032-.052-.02-.026-.038-.061-.058-.09a3.4,3.4,0,0,1-.206-.375,2.161,2.161,0,0,1-.485-.8,8.075,8.075,0,0,1-.317-.808,1.759,1.759,0,0,0,.221.2c.18.134.535.4.68-.1v-.006a3.52,3.52,0,0,1-.808-1.578c-.006-.012-.009-.023-.015-.035a9.578,9.578,0,0,1-.314-1.142c.076.087.148.163.218.23.148.14.323.331.468.084a.125.125,0,0,0,.015-.047c-.113-.235-.23-.462-.334-.727a2.525,2.525,0,0,1-.128-.235,6.735,6.735,0,0,1-.32-.86c.035.029.07.058.1.084.11.076.241.108.317-.177v-.006a7.806,7.806,0,0,1-1-2.317,21.21,21.21,0,0,1-.814-4.093h0c0-.02-.006-.044-.006-.067a22.129,22.129,0,0,1-.756,3.628c-.154.509-.32.974-.494,1.416a2.7,2.7,0,0,1-.177.366c-.038.087-.076.172-.113.256-.015.032-.035.076-.055.125s-.032.076-.052.116v.009c-.023.041-.044.084-.064.125V133c-.023.038-.044.073-.064.1l-.015.023a.345.345,0,0,1-.061.076.235.235,0,0,0,.343.11c-.02.044-.041.087-.061.134s-.038.172,0,.2a.165.165,0,0,0,.067.035.154.154,0,0,0,.035.009h.006a.2.2,0,0,0,.058,0,.774.774,0,0,1-.529.227.412.412,0,0,1-.212.122.163.163,0,0,0,.012.1c.186.308.427.465.645.346-.076.142-.151.276-.224.4a.8.8,0,0,1-.215.247,1.888,1.888,0,0,1-.462.558h0c.116.137.378.436.6.462a3.276,3.276,0,0,1-.253.343,2.451,2.451,0,0,1-.363.416,1.044,1.044,0,0,1-.27.212.258.258,0,0,0,.015.131.294.294,0,0,0,.3.186,3.055,3.055,0,0,1-.459.227c-.044.032-.084.067-.128.1h0l-.11.11a.2.2,0,0,0,.015.1c.253.442.546.727.84.762a1.306,1.306,0,0,1-.16.172c-.026.023-.044.169-.009.195a1.3,1.3,0,0,0,.3.145,2.4,2.4,0,0,1-.233.27.863.863,0,0,1-.294.189.938.938,0,0,1-.206.189,1.223,1.223,0,0,1-.259.084.152.152,0,0,0,.009.052c.169.421.419.6.663.6a1.309,1.309,0,0,1-.206.2c-.026.02-.044.174-.009.195a1.016,1.016,0,0,0,.4.171,5.644,5.644,0,0,1-.407.564,3.774,3.774,0,0,1-.3.331,1.553,1.553,0,0,1-.9.6,1.624,1.624,0,0,0,.154.267h0a.893.893,0,0,0,.346.323s.006,0,.009.006a.636.636,0,0,0,.067.026.24.24,0,0,0,.044.012c.017,0,.035.009.055.012s.044,0,.064.006h.038a.431.431,0,0,0,.1-.015,3.348,3.348,0,0,1-.48.6.253.253,0,0,0-.023.18c.119.279.291.337.462.279-.009.012-.017.026-.026.041-.163.238-.366.331-.514.634a.294.294,0,0,0-.015.183c.11.25.262.323.41.311-.064.07-.128.14-.192.206-.145.154-.4.233-.532.573a.8.8,0,0,0-.044.134.246.246,0,0,0,.009.154c.195.305.465.206.68.212a.535.535,0,0,0,.116-.009,2.062,2.062,0,0,0-.265.439.3.3,0,0,0-.009.215c.151.218.381.064.535-.047.084-.061.169-.125.253-.189a.942.942,0,0,0-.073.558c.128.195.369-.122.541-.317,0,.038-.009.076-.009.122a.243.243,0,0,0,.017.116c.064.108.119.1.189-.012a3.736,3.736,0,0,1,.267-.4,1.256,1.256,0,0,0-.087.7c.067.206.195.038.27-.044-.058.148-.113.294-.166.442-.023.07-.029.212.012.238.221.14.491-.34.68-.645.032-.052.064-.108.1-.163-.041.282-.081.741.064.695.078-.023.157-.215.215-.355.1-.233.2-.465.3-.712-.009.282-.006.564,0,.846-.006.424-.012.846-.02,1.267H91.861V151H88.495v-1.709l-.953-.884-1.067-.991H83.765l-2.314,2.238v2.988l-.773.291c-.012-.041-.023-.081-.032-.119a4.742,4.742,0,0,1-.087-1.035c-.006-.654-.084-1.3-.137-1.95-.047-.581-.087-1.169-.076-1.756a3.384,3.384,0,0,1,.546-.767,5.122,5.122,0,0,1,1.012-.878,1.722,1.722,0,0,1,.27-.209c.084-.058.169-.113.256-.166a.862.862,0,0,1,.151-.015h0a.982.982,0,0,1,.16.009c.195.029.387.058.581.081.108.012.218.017.328.02a.732.732,0,0,0-.038.218.088.088,0,0,0,.084.084,1.407,1.407,0,0,0,.593-.189,1.076,1.076,0,0,0-.078.273.088.088,0,0,0,.078.113c.221.02.384-.163.535-.3.023.177.078.416.241.494.241.113.378-.218.413-.392a.687.687,0,0,0,.235.27c.081.049.192-.064.221-.125a.451.451,0,0,0,.023-.067v.006a.273.273,0,0,0,.02-.064c0-.015.009-.029.012-.044a1.288,1.288,0,0,0,.017-.148.3.3,0,0,0,.392.113.419.419,0,0,0,.151-.433.748.748,0,0,0,.224-.328h.029a.5.5,0,0,0,.253.1.242.242,0,0,0,.267-.192.609.609,0,0,0,.076-.038.3.3,0,0,0,.3.122.409.409,0,0,0,.262-.247.561.561,0,0,0,.032-.1.745.745,0,0,0,.154.148.572.572,0,0,0,.7.023c.183-.157.076-.445.026-.634-.017-.064-.029-.131-.044-.195a1.313,1.313,0,0,0,.727-.119c.363-.206.035-.654-.2-.82a1.227,1.227,0,0,0-.256-.116,1.613,1.613,0,0,0,.462-.509c.023-.041.044-.1-.012-.128a.854.854,0,0,0-.285-.07,1.536,1.536,0,0,0,.506-.544.081.081,0,0,0-.029-.113,1.059,1.059,0,0,0-.218-.1.751.751,0,0,0,.235-.131.224.224,0,0,0,0-.369.629.629,0,0,0-.157-.084,1,1,0,0,0,.459-.509c.015-.038.02-.093-.026-.11a1.2,1.2,0,0,0-.622-.081.4.4,0,0,0,.113-.4c-.076-.285-.419-.256-.674-.186.032-.073.064-.148.09-.224.044-.128.125-.337.038-.465a.159.159,0,0,0-.029-.032.022.022,0,0,0-.012-.006.088.088,0,0,0-.023-.012.026.026,0,0,1-.015,0c-.009,0-.015,0-.023,0h-.047l-.012,0h-.006a.483.483,0,0,0-.058.023l-.012.006a.373.373,0,0,0-.058.032.085.085,0,0,0-.026-.006.093.093,0,0,0,.041-.1.962.962,0,0,0-.43-.564h0a2.382,2.382,0,0,0,.189-.195c.125-.142.253-.285.09-.453a.988.988,0,0,0-.488-.2.1.1,0,0,1-.029-.006,1.975,1.975,0,0,0,.134-.174.8.8,0,0,0,.119-.27,2.16,2.16,0,0,0,.116-.212c.09-.189.148-.442-.055-.584a.854.854,0,0,0-.48-.1,1.108,1.108,0,0,0-.238.026v-.038a2.42,2.42,0,0,0-.02-.648c-.017-.064-.09-.16-.169-.142a.9.9,0,0,0-.5.384c-.009-.122-.023-.241-.044-.36a.189.189,0,0,0-.177-.148.886.886,0,0,0-.259.049,1.963,1.963,0,0,0,.134-.3c.041-.113-.087-.221-.189-.227a1.143,1.143,0,0,0-.323.035,1.112,1.112,0,0,0-.012-.66c-.029-.061-.1-.125-.174-.1a1.037,1.037,0,0,0-.241.119,2.05,2.05,0,0,0-.087-.195c-.067-.137-.166-.453-.366-.439a.377.377,0,0,0-.23.16,1.943,1.943,0,0,0-.209.279,1.571,1.571,0,0,0-.14.291c-.041-.11-.09-.215-.128-.294a2.933,2.933,0,0,0-.328-.628c-.067-.081-.186-.195-.3-.154a.3.3,0,0,0-.14.151.629.629,0,0,0-.148-.189c-.212-.177-.509-.061-.712.07a1.928,1.928,0,0,0-.212.16.183.183,0,0,0-.035.032l-.113.1a1.4,1.4,0,0,0,.032-.221.346.346,0,0,0-.285-.355.728.728,0,0,0-.651.256c-.151-.241-.546-.227-.86-.148.076-.276-.035-.578-.39-.561a.486.486,0,0,0-.326.148,1.811,1.811,0,0,0-.081-.294.437.437,0,0,0-.663-.262,1.108,1.108,0,0,0-.331.785c-.009.073-.017.148-.023.224l-.023-.023a.407.407,0,0,0-.186-.151c-.244-.084-.384.052-.48.233-.1-.212-.235-.424-.465-.41.023-.3-.061-.608-.407-.552-.212.035-.352.262-.436.436l-.02.041c-.081-.238-.235-.439-.477-.378-.27.064-.305.337-.3.6a.351.351,0,0,0-.509-.017.559.559,0,0,0-.113.558.327.327,0,0,0-.352.055.446.446,0,0,0-.113.468.709.709,0,0,0-.695.081.508.508,0,0,0-.169.256c-.07.131-.125.27-.186.4a2.863,2.863,0,0,0-.122.276,1.7,1.7,0,0,0-.134-.273,1.9,1.9,0,0,0-.2-.265c-.058-.067-.122-.145-.215-.151-.189-.015-.282.285-.346.413-.026.052-.055.116-.081.183a1.1,1.1,0,0,0-.227-.113.148.148,0,0,0-.166.093,1.057,1.057,0,0,0-.012.622,1.11,1.11,0,0,0-.305-.032c-.1.006-.218.108-.18.215a2.046,2.046,0,0,0,.128.282.789.789,0,0,0-.244-.047.177.177,0,0,0-.166.14,3.388,3.388,0,0,0-.041.34.858.858,0,0,0-.474-.36c-.076-.017-.142.076-.16.134a2.144,2.144,0,0,0-.02.61v.035a.975.975,0,0,0-.224-.023.8.8,0,0,0-.451.1c-.192.134-.137.372-.052.549.032.067.07.134.11.2a.707.707,0,0,0,.113.253,1.37,1.37,0,0,0,.128.163.086.086,0,0,0-.029.006.927.927,0,0,0-.459.192c-.151.16-.032.294.087.427a1.727,1.727,0,0,0,.177.18h0a.911.911,0,0,0-.4.535.09.09,0,0,0,.11.11c.151-.015.323-.009.5-.009a1.5,1.5,0,0,0-.061.142.912.912,0,0,0-.064.244c-.093-.11-.209-.169-.334-.084a.34.34,0,0,0-.11.363c-.055-.044-.1-.093-.154-.14s-.14.041-.14.1a.96.96,0,0,0,.041.427c.012.023.026.061.044.093a1.314,1.314,0,0,0-.642.291c-.026.023-.052.081-.02.108a1.793,1.793,0,0,0,.378.273c-.052.041-.1.084-.154.131a1.356,1.356,0,0,0-.474.645.062.062,0,0,0,.032.076,1.218,1.218,0,0,0,.552.035.616.616,0,0,0-.125.276c0,.026,0,.067.032.076a.448.448,0,0,0,.186.006h.012a1.33,1.33,0,0,0-.174.581c0,.032.026.047.052.052a.961.961,0,0,0,.512-.16c-.009.047-.015.093-.02.142a2.056,2.056,0,0,0,.038.718c.061.235.294.166.451.067.02-.012.041-.026.061-.041a.841.841,0,0,0,0,.148.052.052,0,0,0,.052.052.614.614,0,0,0,.305-.14,1.137,1.137,0,0,0-.128.471.052.052,0,0,0,.067.047,3.164,3.164,0,0,0,.448-.186l.032-.017c.009.073.073.125.154.166l-.1.061a.794.794,0,0,0-.349.328c-.009.023-.017.067.006.084a1.427,1.427,0,0,0,.887.206,1.3,1.3,0,0,0,.18-.017.976.976,0,0,0-.006.206.923.923,0,0,0,.326.674c.108.055.238-.058.308-.125a2.153,2.153,0,0,0,.3-.349h0a.136.136,0,0,0,.012.047.1.1,0,0,0,.07.1.228.228,0,0,0,.192.015.864.864,0,0,0,.363-.218c.009.279.084.509.32.474.334-.052.573-.465.689-.744a1.669,1.669,0,0,0,.055-.16c.02.009.038.017.055.023a.447.447,0,0,0,.48-.026c.169-.16.052-.355-.049-.515,0-.006-.006-.009-.009-.015l.029.02.009.006c.177.119.387.253.578.381l.113.076.041.026c.052.035.1.07.145.1a5.964,5.964,0,0,0,.619.285c.157.061.32.113.474.186a1.589,1.589,0,0,1,.355.233,2.6,2.6,0,0,1,.474.346,1.819,1.819,0,0,1,.387.39c.02.029.044.058.067.09,0,.006.006.009.009.015.02.026.038.055.055.081a.217.217,0,0,0,.02.035l.035.07c.006.015.009.029.015.044a.35.35,0,0,1,.017.093.25.25,0,0,1-.006.067c.017.331.038.663.049.994,0,.046,0,.093,0,.14a3.834,3.834,0,0,1-.006,1.064,20.856,20.856,0,0,1-.119,2.256A9.324,9.324,0,0,0,78.434,153a1.468,1.468,0,0,1-.116.483l-1.1.009a1.015,1.015,0,0,0-.055-.887c-.142-.189-.392-.145-.61-.032a.639.639,0,0,0-.218-.663c-.25-.189-.5-.015-.68.247a1.858,1.858,0,0,0-.134-.247c-.195-.3-.392-.262-.57-.1a1.35,1.35,0,0,0-.134-.349c-.305-.567-.654-.4-.892-.058a1.158,1.158,0,0,0-.206-.241c-.416-.363-.759.11-.91.517a1.025,1.025,0,0,0-.956.82,1.306,1.306,0,0,0,.235,1.032l-3.369.029a36.268,36.268,0,0,0,35.138,27.3A35.689,35.689,0,0,0,138.5,155.318h-2.825Zm-47.3-15.781c.055,0,.1,0,.157.006-.012,0-.023.009-.038.012a.9.9,0,0,0-.163.093.444.444,0,0,0,.041-.113Zm-4.578,6.334s0,.006,0,.006c-.3-.015-.6-.049-.907-.058.084-.041.172-.076.256-.113s.18-.073.273-.108A.5.5,0,0,0,83.777,145.882Zm-.692-1.148a1.683,1.683,0,0,0,.4.189,2.181,2.181,0,0,0-.233.134c-.041.029-.134.145-.081.206-.1.047-.192.1-.291.142.006-.017.015-.032.02-.049s.009-.017.012-.026c.026-.064.055-.131.078-.195a2.03,2.03,0,0,0,.09-.4Zm-.154-.625c-.009.041-.02.078-.029.119l-.017.07a.013.013,0,0,1-.023-.009,1.08,1.08,0,0,0-.02-.195l.093.014Zm-1.224-.581a1.977,1.977,0,0,0,.366-.349l.09-.026a.448.448,0,0,0-.14.3c.006.1.113.128.189.16a1.23,1.23,0,0,0,.392.09v.012a.672.672,0,0,0-.113.09c-.041.041-.09.131-.035.18a.413.413,0,0,0,.224.09,1.144,1.144,0,0,1,.02.174,2.107,2.107,0,0,1-.157.581,1.426,1.426,0,0,1-.224.535,1.749,1.749,0,0,1-.465.372,6.767,6.767,0,0,0-1.084.863,4.214,4.214,0,0,0-.413.439,1.054,1.054,0,0,0-.064.093h0a4.264,4.264,0,0,1,.026-.427c.006-.058.015-.113.023-.171a4.62,4.62,0,0,1-.006-.695,5.469,5.469,0,0,1,.125-.863c.012-.163.029-.326.055-.488a.724.724,0,0,1,.032-.084.765.765,0,0,1,.305-.384c.267-.192.59-.294.858-.485Zm-.948,0c.035-.1.073-.189.113-.282a.393.393,0,0,1,.044-.076.315.315,0,0,0,.273-.047,1.267,1.267,0,0,0,.212-.166c-.061.131-.087.279.09.317a.359.359,0,0,0,.058.006,3.083,3.083,0,0,1-.369.27c-.166.1-.355.169-.517.273.012-.041.026-.081.041-.122.017-.058.038-.116.058-.174Zm-1.052.093c0-.041,0-.081,0-.119,0-.087.009-.174.012-.262s.012-.189.02-.282c.006-.073.015-.145.023-.218a1.442,1.442,0,0,0,.11-.128,1.147,1.147,0,0,0-.052.16.09.09,0,0,0,.113.113.649.649,0,0,0,.238-.154l.055-.044a.434.434,0,0,0,.221.317.287.287,0,0,0,.27,0,2.051,2.051,0,0,0-.291.36,3.648,3.648,0,0,0-.349.9,3.9,3.9,0,0,1-.215.843,1.9,1.9,0,0,0-.1-.352c-.041-.163,0-.352-.026-.517a2.626,2.626,0,0,1-.032-.4v-.212Zm-.378-1.1a.383.383,0,0,0,.116.305c-.029.2-.084.41-.151.735h0l-.006.029a1,1,0,0,1-.07-.445,1.7,1.7,0,0,0-.084-.439.659.659,0,0,0,.2-.183Zm-2.785,2.82-.125-.061q-.065-.035-.14-.07h0l-.02-.012-.169-.09-.015-.009-.032-.017c-.044-.026-.087-.049-.134-.079l-.067-.041c-.041-.023-.078-.049-.116-.076-.015-.012-.032-.02-.047-.032l-.009-.006-.023-.017h0a.145.145,0,0,0,.026-.122.662.662,0,0,0-.061-.131v-.026h.006a.9.9,0,0,0,.43-.023.331.331,0,0,0,.215-.262c.087.189.137.4.206.59,0,.006,0,.009.006.015a4.063,4.063,0,0,0,.163.515l-.1-.047Zm1.988,1.3a.329.329,0,0,1-.116-.067.665.665,0,0,1-.078-.078l-.006-.006c-.026-.032-.055-.07-.078-.1s-.032-.041-.047-.061a.146.146,0,0,0-.02-.023.837.837,0,0,0-.07-.073,3.747,3.747,0,0,0-.573-.4c-.07-.041-.14-.078-.212-.113h0l-.017-.009c-.015-.017-.032-.035-.047-.049-.044-.044-.087-.087-.128-.131h0c-.044-.047-.09-.1-.128-.145a1.474,1.474,0,0,1-.186-.392,8.507,8.507,0,0,0-.363-.773c-.061-.119-.119-.247-.192-.36a.584.584,0,0,0,0-.073l.017-.009a.524.524,0,0,0,.233-.506.694.694,0,0,0,.064.067c.049.047.1.026.151-.015l.009.006c.006.084.017.169.02.247a.325.325,0,0,0,.076.235c.09.078.218-.017.288-.076a.519.519,0,0,0,.084-.093c.128.093.238.177.285.212a2.962,2.962,0,0,1,.863,1.02,1.443,1.443,0,0,1,.212.808,4.85,4.85,0,0,1-.035.968Zm-.3-2.945c-.154-.148-.314-.291-.477-.433l-.154-.137c-.041-.038-.084-.073-.125-.11l.006.006L77.464,143c.009-.035.02-.07.032-.108.067.125.16.218.285.195.177-.035.238-.25.267-.4.015-.078.032-.163.044-.25a.359.359,0,0,0,.256-.151c-.015.087-.023.177-.038.256-.032.151-.113.549.142.532.11-.006.209-.14.27-.215a1.261,1.261,0,0,0,.1-.142c.02.078.041.16.058.238v.009c.058.288.078.584.113.875v.017h0a.244.244,0,0,0,.006.029c0,.023.009.047.012.07s.017.07.026.1v.009a.653.653,0,0,1,.026.1.637.637,0,0,1,.017.108,1.776,1.776,0,0,1-.015.279s0-.006-.006-.009h0c-.1-.122-.221-.23-.331-.349-.16-.174-.326-.343-.5-.509Z"
                transform="translate(-56.909 -101.914)" fill="#e9f2f0" />
            <g transform="translate(0 1.35)">
                <path
                    d="M33.136,182.7a2.651,2.651,0,0,1-4.695.012,3.3,3.3,0,0,1-.006-2.953,2.651,2.651,0,0,1,4.694-.012,3.306,3.306,0,0,1,.006,2.956Zm-1.058-2.186a1.34,1.34,0,0,0-.523-.5,1.712,1.712,0,0,0-1.546,0,1.34,1.34,0,0,0-.52.506,1.4,1.4,0,0,0-.183.712,1.388,1.388,0,0,0,.186.709,1.34,1.34,0,0,0,.523.5,1.712,1.712,0,0,0,1.546,0,1.34,1.34,0,0,0,.52-.506,1.461,1.461,0,0,0,0-1.421Z"
                    transform="translate(-28.09 -139.723)" fill="#214645" />
                <path
                    d="M34.79,158.334a2.653,2.653,0,0,1-4.636-.747,3.318,3.318,0,0,1,.471-2.918,2.653,2.653,0,0,1,4.636.747,3.318,3.318,0,0,1-.471,2.918Zm-.689-2.328a1.33,1.33,0,0,0-.436-.581,1.6,1.6,0,0,0-.735-.305,1.567,1.567,0,0,0-.794.061,1.345,1.345,0,0,0-.892,1.084,1.411,1.411,0,0,0,.07.732,1.33,1.33,0,0,0,.436.581,1.722,1.722,0,0,0,1.529.247,1.337,1.337,0,0,0,.6-.416,1.36,1.36,0,0,0,.3-.671,1.411,1.411,0,0,0-.07-.733Z"
                    transform="translate(-29.445 -122.181)" fill="#214645" />
                <path
                    d="M40.324,128.4l-2.6-.881L39.4,129.5l-.212.616-2.477.549,2.529.872-.442,1.282-4.9-1.689.392-1.142,3.421-.747-2.25-2.654.392-1.142,4.907,1.674-.439,1.273Z"
                    transform="translate(-32.211 -102.2)" fill="#214645" />
                <path d="M48.95,99.256l.637-1.076,4.758,5.657-.637,1.078L48.95,99.258Z"
                    transform="translate(-42.886 -82.857)" fill="#214645" />
                <path
                    d="M70.372,76.206l-2.041-1.84.756,2.491-.439.483-2.491-.477,1.977,1.8-.913,1L63.39,76.175l.814-.892,3.439.669-1.014-3.328.814-.892,3.843,3.482-.907,1Z"
                    transform="translate(-53.129 -64.096)" fill="#214645" />
                <path
                    d="M89.124,60.009a1.277,1.277,0,0,1,.689.471,1.188,1.188,0,0,1,.218,1.166,2.812,2.812,0,0,1-1.017,1.27l-2.2,1.73-3.2-4.075,2.084-1.639a2.588,2.588,0,0,1,1.416-.645,1.153,1.153,0,0,1,1.017.456,1.249,1.249,0,0,1,.267.634,1.263,1.263,0,0,1-.119.683,1.466,1.466,0,0,1,.846-.049Zm-3.718.5.616.785.791-.622c.387-.305.48-.59.27-.855s-.5-.238-.889.067L85.4,60.5Zm3.142.762c-.218-.276-.526-.256-.93.061l-.968.759.651.826.968-.759q.606-.475.282-.889Z"
                    transform="translate(-67.471 -54.558)" fill="#214645" />
                <path
                    d="M108.08,51.005a2.648,2.648,0,0,1-2.3-4.093,3.311,3.311,0,0,1,2.578-1.445,2.643,2.643,0,0,1,1.369.334,2.594,2.594,0,0,1,1,1.023,2.594,2.594,0,0,1-.076,2.735,3.086,3.086,0,0,1-1.119,1.026A3.119,3.119,0,0,1,108.08,51.005Zm1.392-1.988a1.325,1.325,0,0,0,.183-.7,1.553,1.553,0,0,0-.218-.764,1.6,1.6,0,0,0-.541-.584,1.346,1.346,0,0,0-.695-.209,1.393,1.393,0,0,0-.709.186,1.371,1.371,0,0,0-.529.509,1.322,1.322,0,0,0-.183.7,1.553,1.553,0,0,0,.218.764,1.6,1.6,0,0,0,.541.584,1.32,1.32,0,0,0,.695.209,1.393,1.393,0,0,0,.709-.186,1.372,1.372,0,0,0,.529-.509Z"
                    transform="translate(-82.895 -45.467)" fill="#214645" />
            </g>
            <path
                d="M64.921,113.125a36.244,36.244,0,0,1,28.161-55.1,1.658,1.658,0,0,1,.209-.776,1.693,1.693,0,0,1,.759-.718,4.284,4.284,0,0,1-.259-.695,38.419,38.419,0,0,0-30.2,59.229c.453-.642.9-1.288,1.328-1.945Z"
                transform="translate(-48.901 -51.475)" fill="#214645" />
            <path
                d="M244.657,75.492a12.079,12.079,0,0,1,2.128-.779,38.864,38.864,0,0,0-3.471-3.974,38.217,38.217,0,0,0-16.235-9.68c.965,1.174,1.924,2.288,2.831,3.279A36.45,36.45,0,0,1,244.657,75.492Z"
                transform="translate(-169.237 -55.177)" fill="#214645" />
            <path
                d="M178.073,138.7a36.253,36.253,0,0,1-49.352,45.971c-.25.078-.5.16-.756.244-.695.23-1.413.465-2.137.674l-.029.009a38.436,38.436,0,0,0,54.026-48.329c-.616.477-1.253.991-1.75,1.433Z"
                transform="translate(-97.397 -109.235)" fill="#214645" />
            <g transform="translate(12.338 53.787)">
                <path
                    d="M93.607,244.888c2.032-.221,4.07-.4,6.1-.61,2.66-.279,5.314-.628,7.988-.741a23.5,23.5,0,0,0,5.337-.587,8.947,8.947,0,0,0,1.913-.776c3.087-1.706,6.165-3.424,9.226-5.18a30.562,30.562,0,0,0,2.9-1.951,4.8,4.8,0,0,0,1.02-1.1,1.86,1.86,0,0,0-1.451-3c-.108-.009-.218-.015-.328-.015a4.409,4.409,0,0,0-1.747.384c-.1.041-.192.084-.291.131-3.625,1.75-7.264,3.471-10.8,5.157q-1.051-.135-2.1-.264h-.015q-2.115-.27-4.224-.538c-.567-.073-1.134-.142-1.7-.215h0l-2.192-.279h0c-.637-.081-1.27-.16-1.9-.241l-1.985-.253h0c-.337-.044-.671-.084-1.006-.128q-2.782-.358-5.6-.712c1.747-1,3.139-2.145,4.991-2.57a23.975,23.975,0,0,0,4.235-1.552,5.562,5.562,0,0,0,1.732-1.3,1.356,1.356,0,0,0-.788-2.448,10.167,10.167,0,0,0-2.058-.23,7.282,7.282,0,0,0-.756.041c-2.433.241-5.985,1.34-8.421,1.576-4.741.171-7.752.433-11.88,2.767a12.359,12.359,0,0,0-3.782,3.715c-.27.424-.549.843-.828,1.259q-.645.955-1.314,1.887c-.927,1.3-1.887,2.573-2.854,3.846a2.407,2.407,0,0,0,.174,3.116q2.075,2.171,4.139,4.334a3.087,3.087,0,0,0,2.23.953,3.168,3.168,0,0,0,.91-.137q3.126-.972,6.212-1.921c.491-.154.98-.305,1.471-.456.442-.128.878-.265,1.314-.4a27.309,27.309,0,0,1,6.139-1.558Z"
                    transform="translate(-70.534 -225.86)" fill="#214645" />
                <path
                    d="M197.273,242.02c.916.108,1.863.224,2.767.32h0c.514.055,1.012.1,1.482.137a4.8,4.8,0,0,0,.927-.349q3.929-1.805,7.825-3.683a4.314,4.314,0,0,0,1.285-.924,1.211,1.211,0,0,0,.3-.6.98.98,0,0,0-.256-.782,2.554,2.554,0,0,0-.494-.453,1.169,1.169,0,0,0-.7-.2,5.583,5.583,0,0,0-1.962.581c-.985.424-1.921.817-2.869,1.328-.067.035-.131.07-.195.1-.628.337-1.253.657-1.869.959l-.009,0c-.651.32-1.291.619-1.9.9-.006,0-.009.006-.015.006-.991.451-1.918.843-2.741,1.174-.593.238-1.131.448-1.593.622-.169.064-.328.122-.477.177-.041.015-.084.032-.128.046l-.235.084c-.4.145-.695.247-.857.3-.1.032-.145.047-.145.047l.078.009c.564.055,1.166.122,1.785.195Z"
                    transform="translate(-159.111 -232.684)" fill="#214645" />
                <path
                    d="M179.525,241.081a.014.014,0,0,0,.009,0c.006,0,.012-.006.017-.006.218-.084.433-.171.648-.259,1.259-.515,2.468-1.046,3.77-1.564.142-.055.291-.113.445-.172l.009,0a10.831,10.831,0,0,0,1.639-.75c.047-.029.09-.055.134-.087h0a1.611,1.611,0,0,0,.814-1.154c0-.061,0-.119,0-.177a.836.836,0,0,0-.93-.727,1.294,1.294,0,0,0-.183.012,11.318,11.318,0,0,0-4.206,1.241,39.675,39.675,0,0,1-6.683,2.721c-.593.2-1.186.4-1.776.6q-.44.148-.881.305c-.073.023-.148.052-.221.078a1.508,1.508,0,0,0-.506.244.111.111,0,0,0-.015.169c.846.041,1.918.186,2.965.326h0c.686.09,1.36.177,1.948.227h0c.108.009.215.017.317.023l.157-.064h0c.337-.137.52-.209.788-.314.195-.076.439-.169.826-.314.081-.029.171-.064.267-.1.218-.081.433-.166.648-.247Z"
                    transform="translate(-142.206 -233.18)" fill="#214645" />
            </g>
            <path
                d="M176.138,47.6c.523.91,1.642,2.279.7,2.421-1.107.619,1.389,2.131.2,2.857-.584.358.113,1.078.407,1.913s-.654,1.509-.247,1.959.608.494.494.831-.18,1.081.227,1.328.4,1.148,1.732,1.776-1.061.244-1.238.788c-.1.3,1.078.227,1.148.718s0,1.014.741,1.285c-.294.631.337,1.238.674,1.372-.4.541.384,2.07,2.253,2.046-.462.651.433.927.945.878-.7.384-.337.855-.134,1.913s-.134,1.756.988,2.654c1.259.968.834.326,1.012.991,1.785,1.674,8.407-7.346,9.787-4.971-1.471.427-7.337,6.433-11.97,7.514-4.328.962-14.807,3.91-10.906,3.79,1.677.064,3.334-.756,4.965-.651.471.305-.608.6,1.552.654,1.456.1,2.762-.238,4.1.1.421.067.858.108,1.288.142h0a20.98,20.98,0,0,0,4.258-.073h0a.085.085,0,0,1,.032.032.1.1,0,0,1,.02.044h0a1.89,1.89,0,0,0,2.084,1.366c.384-.035,1.09.244,1.366,0,.084-.183-.189-.233-.308-.294-1.3-.558,1.982-.849,2.8-1.119a17.945,17.945,0,0,0,4.6-2.436h0a89.209,89.209,0,0,0,8.186-6.122,3.1,3.1,0,0,0,.794-1.1,20.068,20.068,0,0,1,3.273-2.9,17.13,17.13,0,0,1,2.137-1.451c.576-.2-.86-.663-1.837-.358a5.857,5.857,0,0,0,2.375-1.98,5.636,5.636,0,0,0-.727-.5h0c-6.552-4.29-9.124,3.366-13.868.2-1.148-.166-2.971-5.363-6.819-8.6a59.109,59.109,0,0,1-10.79-12.988c-.084-.36-.291-1.372-.494-.381a7.376,7.376,0,0,0,.445,2.9c1.171,3.317-2.439-2.259-3.273-2.238-.183,1.055.657,2.27,1.145,3.2.227.535,1.009,1.1.939,1.642,0,0,0,.006-.006.006-1.392.276-2.668-.788-3.692-1.607h0c-1.323-1.209-.689,0-.267.759a3.484,3.484,0,0,0,1.561,1.416c.683.57-.59.866-1.049.669-.5,0-2.061-1.058-1.622-.384Z"
                transform="translate(-130.24 -40.823)" fill="#eacf00" />
            <g transform="translate(62.71 22.992)">
                <path
                    d="M248.953,181.508c0-.038-.009-.076-.015-.116s-.017-.1-.032-.154a1.289,1.289,0,0,0-.038-.142,1,1,0,0,0-.041-.122c-.006-.017-.015-.032-.02-.047a.913.913,0,0,0-.273-.308l-.035-.026a4.291,4.291,0,0,0-.991-.5c-.235-.09-.488-.172-.75-.253-.087-.026-.174-.052-.265-.076a.665.665,0,0,1-.073-.02c.076-.1.148-.2.2-.264.186-.233-.677-.52-.811-.413a2.322,2.322,0,0,0-.419.421c-.279-.061-.544-.11-.779-.154-.093-.017-.18-.032-.265-.047h-.012a.357.357,0,0,0-.055-.006.5.5,0,0,0-.113.009l-.041.009a.436.436,0,0,0-.171.1.353.353,0,0,0-.046.047.4.4,0,0,0-.07.119c-.032.09-.026.157.093.128a.989.989,0,0,1,.294.029c.044.009.093.017.145.029l.081.017.1.02c.032.006.067.015.1.023l.189.047c.064.017.131.032.2.052l.035.009c-.052.081-.11.169-.172.267-.142.23.916.448.994.314.038-.064.1-.163.177-.273l.1.035.142.052c.035.012.07.023.1.038a.2.2,0,0,1,.038.015l.113.044c.009,0,.015.006.023.009a.934.934,0,0,1,.1.038l.02.009h0l.009.006c.128.052.244.1.346.151.032.015.058.029.084.044a.576.576,0,0,1,.084.047l.07.044h0a.5.5,0,0,1,.041.029.2.2,0,0,1,.038.032c.006.006.012.009.015.015l.009.009.017.02a.162.162,0,0,0,.015.023.089.089,0,0,1,.006.023c.009.1-.131.215-.346.326l-.073.035-.035.017c-.142.067-.308.131-.482.192a117.536,117.536,0,0,0-.128.041l-.192.064c-.052.017-.1.032-.154.047s-.084.026-.125.038c-.09.026-.174.052-.256.073-.052.015-.1.029-.148.041a.053.053,0,0,0-.02.006l-.09.023a.355.355,0,0,1-.047.012c-.023.006-.047.015-.067.017l-.035.009c-.084.02.186.363.532.4h.064a.13.13,0,0,0,.032,0c.015,0,.029-.006.044-.006.032-.006.07-.015.108-.023l.07-.017c.067-.02.14-.044.215-.07l.157-.055c.137-.052.282-.108.43-.166l.122-.049c.064-.023.125-.049.189-.073l.183-.07c.081-.029.157-.058.233-.084l.078-.026.073-.023q.074-.026.14-.044c.029-.009.058-.017.084-.023l.073-.017.044-.009a.781.781,0,0,1,.1-.017c.02,0,.041,0,.058,0a.179.179,0,0,1,.142.047.172.172,0,0,1,.035.058.2.2,0,0,1,.009.058.12.12,0,0,1-.006.047.185.185,0,0,1-.017.047.511.511,0,0,1-.049.081v0l-.026.032a1.471,1.471,0,0,1-.3.253c-.026.017-.055.035-.084.055-.206.134-.456.267-.7.392-.041.02-.081.044-.119.064-.108.055-.215.113-.314.166-.032.017-.067.035-.1.052-.064.035-.122.067-.177.1a.25.25,0,0,0-.047.029,1.275,1.275,0,0,0-.233.169c-.052.052-.067.087-.052.1a.021.021,0,0,0,.015.012,3.936,3.936,0,0,0,1.134-.294l.137-.044h0l.134-.044c.18-.058.349-.11.491-.151l.052-.015c.035-.006.064-.012.09-.015h.073a.049.049,0,0,1,.02,0,.058.058,0,0,1,.023.012c.006,0,.009,0,.012.009s.006.006.009.009a.01.01,0,0,1,0,.006c0,.006.006.009.006.015s.006.006,0,.012a.423.423,0,0,1-.058.218c-.041.084-.078.16-.055.183a.025.025,0,0,0,.02.006h0a.078.078,0,0,0,.029-.006.881.881,0,0,0,.16-.073,1.672,1.672,0,0,0,.416-1.334.486.486,0,0,0-.006-.093,1.034,1.034,0,0,0-.012-.131Z"
                    transform="translate(-243.823 -161.854)" fill="#214645" />
                <path
                    d="M320.348,120.291a.241.241,0,0,0-.1-.058c-.116-.041-.25-.078-.4-.113l-.087-.02a7.776,7.776,0,0,0-.936-.145c-.087-.009-.174-.015-.259-.02h0a.477.477,0,0,0-.067-.006c-.041,0-.081-.006-.119-.006-.116,0-.227-.006-.326,0-.076,0-.148.006-.215.012-.032,0-.064.009-.093.012-.023.02-.047.044-.07.067-.363.34-.68.628-.93.826l-.081.064-.073.055c-.047.035-.093.067-.131.093a.441.441,0,0,1-.058.035.911.911,0,0,1-.093.047h.113a.534.534,0,0,1,.119.017h.009c.049.015.1.029.145.046a1.345,1.345,0,0,1,.183.09c.084.047.154.1.209.128.006,0,.009.006.014.006a.235.235,0,0,0,.111-.067c.029-.023.058-.049.093-.078a.331.331,0,0,1,.049-.041,1.459,1.459,0,0,1,.247-.166.557.557,0,0,1,.073-.035.665.665,0,0,1,.081-.029.613.613,0,0,1,.148-.035c.009,0,.017,0,.029,0a.717.717,0,0,1,.081-.006h.029a.725.725,0,0,0,.108-.006c.041,0,.081-.009.128-.015.073-.009.157-.02.247-.035l.09-.015c.3-.049.654-.122.962-.2l.16-.044c.058-.017.116-.035.169-.052l.078-.026a1.892,1.892,0,0,0,.177-.07.233.233,0,0,0,.047-.023c.015-.006.023-.015.035-.017a.4.4,0,0,0,.058-.038c.012-.009.02-.017.029-.023a.046.046,0,0,0,.017-.023.022.022,0,0,0,.006-.012.05.05,0,0,0,0-.029.046.046,0,0,0-.015-.029Z"
                    transform="translate(-295.239 -119.918)" fill="#214645" />
                <path
                    d="M260.975,172.638a1.509,1.509,0,0,0-.09-.206c-.009-.017-.017-.032-.026-.047h0a.315.315,0,0,0-.023-.044,1.021,1.021,0,0,0-.116-.154.166.166,0,0,0-.038-.041.472.472,0,0,0-.038-.038.994.994,0,0,0-.172-.125.317.317,0,0,0-.044-.023c-.02-.009-.041-.02-.058-.029l-.078-.029c-.029-.009-.055-.017-.081-.023s-.044-.009-.067-.015h0a.321.321,0,0,0-.052-.006.317.317,0,0,1-.052-.006c-.029,0-.055,0-.084,0a.739.739,0,0,0-.113.006c-.041,0-.078.009-.119.015s-.1.017-.16.032-.128.035-.192.055a.638.638,0,0,0-.1.035c-.041.015-.081.032-.122.049s-.078.032-.116.052l-.078.035c-.061.029-.119.061-.18.1l-.07.041-.07.041a.391.391,0,0,0-.073.052l-.017.017a.065.065,0,0,0-.015.015.117.117,0,0,0-.015.026v.015a.021.021,0,0,0,.006.017c.009.023.041.047.093.067a.744.744,0,0,0,.119.035c.047.012.1.023.163.035h0c.166.032.381.064.637.1.32.052.421.1.392.171a.051.051,0,0,1-.015.023.326.326,0,0,1-.064.061.1.1,0,0,1-.035.023c-.119.084-.32.189-.52.334h0c-.183.1-.369.192-.549.279.041.017.078.032.116.052-.154.116-.3.218-.392.3a.292.292,0,0,0-.044.038.4.4,0,0,0-.058.058.062.062,0,0,0-.012.017c0,.006,0,.009-.006.015a.045.045,0,0,0,0,.02c.009.015.038.017.084.015a.167.167,0,0,0,.035,0,.224.224,0,0,1,.044-.006c.035-.006.078-.015.125-.026s.073-.017.108-.029l.1-.041a1.076,1.076,0,0,0,.1-.046c.07-.035.134-.073.2-.113a.477.477,0,0,0,.049-.032h0c.128-.081.256-.169.378-.247.044-.029.09-.055.134-.081s.09-.047.134-.067a.275.275,0,0,1,.044-.017l.044-.017.044-.015a.566.566,0,0,1,.169-.026h.035a.247.247,0,0,1,.067.009.069.069,0,0,1,.035.009.5.5,0,0,1,.1.038c.108.055.154.116.154.189a.121.121,0,0,1,0,.032l-.009.032a.192.192,0,0,1-.017.035c-.006.012-.015.023-.02.035a1.613,1.613,0,0,1-.424.366l-.052.035c-.052.032-.1.067-.16.1s-.119.073-.183.113c-.032.02-.064.041-.1.058-.163.1-.334.2-.509.3l-.076.047c-.064.038-.119.073-.163.1-.017.012-.032.023-.047.032a.609.609,0,0,0-.1.078l-.015.015-.02.023-.009.017v.02s0,.006,0,.006a.054.054,0,0,0,.029.015l.02,0a.6.6,0,0,0,.119-.006l.058-.009a.506.506,0,0,0,.064-.015.305.305,0,0,0,.049-.012l.052-.012a.487.487,0,0,0,.052-.015c.09-.023.186-.052.282-.081.169-.055.331-.116.453-.169a.589.589,0,0,0,.087-.041c.093-.044.195-.093.3-.157a1.592,1.592,0,0,0,.171-.113c.02-.015.044-.029.064-.046s.052-.038.076-.058a.829.829,0,0,0,.076-.067c.017-.015.032-.029.049-.047a1.5,1.5,0,0,0,.221-.265.481.481,0,0,0,.041-.064.218.218,0,0,0,.02-.035.671.671,0,0,0,.041-.078c.015-.032.029-.064.041-.1a.55.55,0,0,0,.032-.1c.009-.035.017-.07.023-.108a.863.863,0,0,0,.017-.128c0-.035.006-.07.006-.108a1.675,1.675,0,0,0-.073-.471.784.784,0,0,0-.041-.116Z"
                    transform="translate(-254.124 -156.754)" fill="#214645" />
            </g>
        </g>
    </g>
</svg>