<svg xmlns="http://www.w3.org/2000/svg" width="45.969" height="44.374" viewBox="0 0 45.969 44.374">
    <g transform="translate(-6242.009 -670.446)">
        <path
            d="M176.138,47.6c.523.91,1.642,2.279.7,2.421-1.107.619,1.389,2.131.2,2.857-.584.358.113,1.078.407,1.913s-.654,1.509-.247,1.959.608.494.494.831-.18,1.081.227,1.328.4,1.148,1.732,1.776-1.061.244-1.238.788c-.1.3,1.078.227,1.148.718s0,1.014.741,1.285c-.294.631.337,1.238.674,1.372-.4.541.384,2.07,2.253,2.046-.462.651.433.927.945.878-.7.384-.337.855-.134,1.913s-.134,1.756.988,2.654c1.259.968.834.326,1.012.991,1.785,1.674,8.407-7.346,9.787-4.971-1.471.427-7.337,6.433-11.97,7.514-4.328.962-14.807,3.91-10.906,3.79,1.677.064,3.334-.756,4.965-.651.471.305-.608.6,1.552.654,1.456.1,2.762-.238,4.1.1.421.067.858.108,1.288.142h0a20.98,20.98,0,0,0,4.258-.073h0a.085.085,0,0,1,.032.032.1.1,0,0,1,.02.044h0a1.89,1.89,0,0,0,2.084,1.366c.384-.035,1.09.244,1.366,0,.084-.183-.189-.233-.308-.294-1.3-.558,1.982-.849,2.8-1.119a17.945,17.945,0,0,0,4.6-2.436h0a89.209,89.209,0,0,0,8.186-6.122,3.1,3.1,0,0,0,.794-1.1,20.068,20.068,0,0,1,3.273-2.9,17.13,17.13,0,0,1,2.137-1.451c.576-.2-.86-.663-1.837-.358a5.857,5.857,0,0,0,2.375-1.98,5.636,5.636,0,0,0-.727-.5h0c-6.552-4.29-9.124,3.366-13.868.2-1.148-.166-2.971-5.363-6.819-8.6a59.109,59.109,0,0,1-10.79-12.988c-.084-.36-.291-1.372-.494-.381a7.376,7.376,0,0,0,.445,2.9c1.171,3.317-2.439-2.259-3.273-2.238-.183,1.055.657,2.27,1.145,3.2.227.535,1.009,1.1.939,1.642,0,0,0,.006-.006.006-1.392.276-2.668-.788-3.692-1.607h0c-1.323-1.209-.689,0-.267.759a3.484,3.484,0,0,0,1.561,1.416c.683.57-.59.866-1.049.669-.5,0-2.061-1.058-1.622-.384Z"
            transform="translate(6069.908 629.623)" fill="#eacf00" />
        <g transform="translate(6262.857 693.438)">
            <path
                d="M248.953,181.508c0-.038-.009-.076-.015-.116s-.017-.1-.032-.154a1.289,1.289,0,0,0-.038-.142,1,1,0,0,0-.041-.122c-.006-.017-.015-.032-.02-.047a.913.913,0,0,0-.273-.308l-.035-.026a4.291,4.291,0,0,0-.991-.5c-.235-.09-.488-.172-.75-.253-.087-.026-.174-.052-.265-.076a.665.665,0,0,1-.073-.02c.076-.1.148-.2.2-.264.186-.233-.677-.52-.811-.413a2.322,2.322,0,0,0-.419.421c-.279-.061-.544-.11-.779-.154-.093-.017-.18-.032-.265-.047h-.012a.357.357,0,0,0-.055-.006.5.5,0,0,0-.113.009l-.041.009a.436.436,0,0,0-.171.1.353.353,0,0,0-.046.047.4.4,0,0,0-.07.119c-.032.09-.026.157.093.128a.989.989,0,0,1,.294.029c.044.009.093.017.145.029l.081.017.1.02c.032.006.067.015.1.023l.189.047c.064.017.131.032.2.052l.035.009c-.052.081-.11.169-.172.267-.142.23.916.448.994.314.038-.064.1-.163.177-.273l.1.035.142.052c.035.012.07.023.1.038a.2.2,0,0,1,.038.015l.113.044c.009,0,.015.006.023.009a.934.934,0,0,1,.1.038l.02.009h0l.009.006c.128.052.244.1.346.151.032.015.058.029.084.044a.576.576,0,0,1,.084.047l.07.044h0a.5.5,0,0,1,.041.029.2.2,0,0,1,.038.032c.006.006.012.009.015.015l.009.009.017.02a.162.162,0,0,0,.015.023.089.089,0,0,1,.006.023c.009.1-.131.215-.346.326l-.073.035-.035.017c-.142.067-.308.131-.482.192a117.536,117.536,0,0,0-.128.041l-.192.064c-.052.017-.1.032-.154.047s-.084.026-.125.038c-.09.026-.174.052-.256.073-.052.015-.1.029-.148.041a.053.053,0,0,0-.02.006l-.09.023a.355.355,0,0,1-.047.012c-.023.006-.047.015-.067.017l-.035.009c-.084.02.186.363.532.4h.064a.13.13,0,0,0,.032,0c.015,0,.029-.006.044-.006.032-.006.07-.015.108-.023l.07-.017c.067-.02.14-.044.215-.07l.157-.055c.137-.052.282-.108.43-.166l.122-.049c.064-.023.125-.049.189-.073l.183-.07c.081-.029.157-.058.233-.084l.078-.026.073-.023q.074-.026.14-.044c.029-.009.058-.017.084-.023l.073-.017.044-.009a.781.781,0,0,1,.1-.017c.02,0,.041,0,.058,0a.179.179,0,0,1,.142.047.172.172,0,0,1,.035.058.2.2,0,0,1,.009.058.12.12,0,0,1-.006.047.185.185,0,0,1-.017.047.511.511,0,0,1-.049.081v0l-.026.032a1.471,1.471,0,0,1-.3.253c-.026.017-.055.035-.084.055-.206.134-.456.267-.7.392-.041.02-.081.044-.119.064-.108.055-.215.113-.314.166-.032.017-.067.035-.1.052-.064.035-.122.067-.177.1a.25.25,0,0,0-.047.029,1.275,1.275,0,0,0-.233.169c-.052.052-.067.087-.052.1a.021.021,0,0,0,.015.012,3.936,3.936,0,0,0,1.134-.294l.137-.044h0l.134-.044c.18-.058.349-.11.491-.151l.052-.015c.035-.006.064-.012.09-.015h.073a.049.049,0,0,1,.02,0,.058.058,0,0,1,.023.012c.006,0,.009,0,.012.009s.006.006.009.009a.01.01,0,0,1,0,.006c0,.006.006.009.006.015s.006.006,0,.012a.423.423,0,0,1-.058.218c-.041.084-.078.16-.055.183a.025.025,0,0,0,.02.006h0a.078.078,0,0,0,.029-.006.881.881,0,0,0,.16-.073,1.672,1.672,0,0,0,.416-1.334.486.486,0,0,0-.006-.093,1.034,1.034,0,0,0-.012-.131Z"
                transform="translate(-243.823 -161.854)" fill="#fff" />
            <path
                d="M320.348,120.291a.241.241,0,0,0-.1-.058c-.116-.041-.25-.078-.4-.113l-.087-.02a7.776,7.776,0,0,0-.936-.145c-.087-.009-.174-.015-.259-.02h0a.477.477,0,0,0-.067-.006c-.041,0-.081-.006-.119-.006-.116,0-.227-.006-.326,0-.076,0-.148.006-.215.012-.032,0-.064.009-.093.012-.023.02-.047.044-.07.067-.363.34-.68.628-.93.826l-.081.064-.073.055c-.047.035-.093.067-.131.093a.441.441,0,0,1-.058.035.911.911,0,0,1-.093.047h.113a.534.534,0,0,1,.119.017h.009c.049.015.1.029.145.046a1.345,1.345,0,0,1,.183.09c.084.047.154.1.209.128.006,0,.009.006.014.006a.235.235,0,0,0,.111-.067c.029-.023.058-.049.093-.078a.331.331,0,0,1,.049-.041,1.459,1.459,0,0,1,.247-.166.557.557,0,0,1,.073-.035.665.665,0,0,1,.081-.029.613.613,0,0,1,.148-.035c.009,0,.017,0,.029,0a.717.717,0,0,1,.081-.006h.029a.725.725,0,0,0,.108-.006c.041,0,.081-.009.128-.015.073-.009.157-.02.247-.035l.09-.015c.3-.049.654-.122.962-.2l.16-.044c.058-.017.116-.035.169-.052l.078-.026a1.892,1.892,0,0,0,.177-.07.233.233,0,0,0,.047-.023c.015-.006.023-.015.035-.017a.4.4,0,0,0,.058-.038c.012-.009.02-.017.029-.023a.046.046,0,0,0,.017-.023.022.022,0,0,0,.006-.012.05.05,0,0,0,0-.029.046.046,0,0,0-.015-.029Z"
                transform="translate(-295.239 -119.918)" fill="#fff" />
            <path
                d="M260.975,172.638a1.509,1.509,0,0,0-.09-.206c-.009-.017-.017-.032-.026-.047h0a.315.315,0,0,0-.023-.044,1.021,1.021,0,0,0-.116-.154.166.166,0,0,0-.038-.041.472.472,0,0,0-.038-.038.994.994,0,0,0-.172-.125.317.317,0,0,0-.044-.023c-.02-.009-.041-.02-.058-.029l-.078-.029c-.029-.009-.055-.017-.081-.023s-.044-.009-.067-.015h0a.321.321,0,0,0-.052-.006.317.317,0,0,1-.052-.006c-.029,0-.055,0-.084,0a.739.739,0,0,0-.113.006c-.041,0-.078.009-.119.015s-.1.017-.16.032-.128.035-.192.055a.638.638,0,0,0-.1.035c-.041.015-.081.032-.122.049s-.078.032-.116.052l-.078.035c-.061.029-.119.061-.18.1l-.07.041-.07.041a.391.391,0,0,0-.073.052l-.017.017a.065.065,0,0,0-.015.015.117.117,0,0,0-.015.026v.015a.021.021,0,0,0,.006.017c.009.023.041.047.093.067a.744.744,0,0,0,.119.035c.047.012.1.023.163.035h0c.166.032.381.064.637.1.32.052.421.1.392.171a.051.051,0,0,1-.015.023.326.326,0,0,1-.064.061.1.1,0,0,1-.035.023c-.119.084-.32.189-.52.334h0c-.183.1-.369.192-.549.279.041.017.078.032.116.052-.154.116-.3.218-.392.3a.292.292,0,0,0-.044.038.4.4,0,0,0-.058.058.062.062,0,0,0-.012.017c0,.006,0,.009-.006.015a.045.045,0,0,0,0,.02c.009.015.038.017.084.015a.167.167,0,0,0,.035,0,.224.224,0,0,1,.044-.006c.035-.006.078-.015.125-.026s.073-.017.108-.029l.1-.041a1.076,1.076,0,0,0,.1-.046c.07-.035.134-.073.2-.113a.477.477,0,0,0,.049-.032h0c.128-.081.256-.169.378-.247.044-.029.09-.055.134-.081s.09-.047.134-.067a.275.275,0,0,1,.044-.017l.044-.017.044-.015a.566.566,0,0,1,.169-.026h.035a.247.247,0,0,1,.067.009.069.069,0,0,1,.035.009.5.5,0,0,1,.1.038c.108.055.154.116.154.189a.121.121,0,0,1,0,.032l-.009.032a.192.192,0,0,1-.017.035c-.006.012-.015.023-.02.035a1.613,1.613,0,0,1-.424.366l-.052.035c-.052.032-.1.067-.16.1s-.119.073-.183.113c-.032.02-.064.041-.1.058-.163.1-.334.2-.509.3l-.076.047c-.064.038-.119.073-.163.1-.017.012-.032.023-.047.032a.609.609,0,0,0-.1.078l-.015.015-.02.023-.009.017v.02s0,.006,0,.006a.054.054,0,0,0,.029.015l.02,0a.6.6,0,0,0,.119-.006l.058-.009a.506.506,0,0,0,.064-.015.305.305,0,0,0,.049-.012l.052-.012a.487.487,0,0,0,.052-.015c.09-.023.186-.052.282-.081.169-.055.331-.116.453-.169a.589.589,0,0,0,.087-.041c.093-.044.195-.093.3-.157a1.592,1.592,0,0,0,.171-.113c.02-.015.044-.029.064-.046s.052-.038.076-.058a.829.829,0,0,0,.076-.067c.017-.015.032-.029.049-.047a1.5,1.5,0,0,0,.221-.265.481.481,0,0,0,.041-.064.218.218,0,0,0,.02-.035.671.671,0,0,0,.041-.078c.015-.032.029-.064.041-.1a.55.55,0,0,0,.032-.1c.009-.035.017-.07.023-.108a.863.863,0,0,0,.017-.128c0-.035.006-.07.006-.108a1.675,1.675,0,0,0-.073-.471.784.784,0,0,0-.041-.116Z"
                transform="translate(-254.124 -156.754)" fill="#fff" />
        </g>
    </g>
</svg>